<?xml version="1.0" encoding="utf-8"?>
<svg viewBox="0 0 32 23" xmlns="http://www.w3.org/2000/svg">
  <g id="Page-1" stroke="none" stroke-width="1" fill="none" fill-rule="evenodd" transform="matrix(1, 0, 0, 1, -2.220446049250313e-16, 0)">
    <g id="scalameta" fill="#FFFFFF">
      <path d="M 17.824 7.942 C 19.96 5.461 21.969 4.1 22.173 3.948 C 22.381 3.795 22.543 3.652 22.739 3.63 C 22.779 3.626 22.944 3.609 23.183 3.586 C 24.269 3.466 27.016 3.167 27.229 3.145 C 27.494 3.117 27.692 3.408 27.575 3.642 C 27.457 3.879 25.186 7.623 24.953 12.188 C 24.72 16.756 26.147 18.346 26.449 19.122 C 26.752 19.899 22.745 20.285 21.746 19.122 C 20.746 17.961 20.342 15.921 20.457 12.259 C 20.48 11.523 20.593 10.755 20.76 9.997 C 18.998 12.155 17.392 14.25 17.347 14.297 C 17.286 14.361 17.223 14.432 17.117 14.444 C 17.117 14.444 16.465 14.52 16.324 14.536 C 16.195 14.552 15.483 14.632 14.733 14.715 C 13.831 14.819 12.986 14.917 12.842 14.935 C 12.817 14.94 12.793 14.941 12.77 14.94 C 12.512 14.947 12.351 14.724 12.356 14.536 C 12.361 14.357 12.376 12.2 12.819 9.963 C 11.047 12.133 9.424 14.249 9.379 14.297 C 9.318 14.361 9.256 14.432 9.148 14.444 C 9.148 14.444 8.499 14.52 8.356 14.536 C 8.226 14.552 7.515 14.632 6.766 14.715 C 5.865 14.819 5.019 14.917 4.875 14.935 C 4.849 14.94 4.825 14.941 4.802 14.94 C 4.563 14.947 4.405 14.754 4.39 14.577 L 4.39 14.472 C 4.399 14.009 4.45 11.549 5.012 9.23 C 5.612 6.755 6.987 4.123 7.08 3.933 C 7.174 3.743 7.365 3.569 7.626 3.543 C 7.887 3.515 11.046 3.175 11.335 3.145 C 11.624 3.114 11.805 3.415 11.69 3.644 C 11.588 3.846 10.573 5.807 9.858 7.939 C 11.995 5.46 14 4.1 14.205 3.948 C 14.412 3.795 14.586 3.649 14.772 3.63 C 14.772 3.63 14.772 3.63 14.773 3.63 C 14.772 3.63 14.772 3.63 14.772 3.63 C 14.772 3.63 15.455 3.557 15.594 3.543 C 15.854 3.515 18.964 3.175 19.253 3.145 C 19.541 3.114 19.723 3.415 19.607 3.644 C 19.505 3.846 18.527 5.81 17.824 7.942 Z" id="Path" style=""/>
    </g>
  </g>
</svg>